<svg width="24" height="28" viewBox="0 0 24 28" fill="none" xmlns="http://www.w3.org/2000/svg">
<path d="M8.5 22.5L8 25L7.5 26L9 26.5L14 25L19 23.5L22 22.5V21L21 19L20 17L19 15L17 10.5L15 6.5L14 4.5L13.5 3.5L13 3L12.5 3.5L11.5 6L10.5 11L9.5 17.5L8.5 22.5Z" fill="lightgray"/>
<path fill-rule="evenodd" clip-rule="evenodd" d="M21.211 22.2097L8.74001 25.9277C8.65313 25.954 8.56089 25.9574 8.47232 25.9374C8.38374 25.9175 8.30186 25.8749 8.23466 25.8138C8.16746 25.7528 8.11724 25.6753 8.08891 25.5891C8.06058 25.5028 8.0551 25.4107 8.07301 25.3217L12.529 3.81066C12.5479 3.72279 12.5938 3.64303 12.6603 3.5826C12.7268 3.52216 12.8106 3.48408 12.8998 3.47371C12.9891 3.46334 13.0794 3.48119 13.158 3.52477C13.2366 3.56835 13.2995 3.63545 13.338 3.71666L21.587 21.3777C21.624 21.4562 21.6435 21.5418 21.6442 21.6286C21.6449 21.7154 21.6267 21.8013 21.591 21.8804C21.5552 21.9595 21.5027 22.0299 21.4371 22.0868C21.3715 22.1436 21.2944 22.1855 21.211 22.2097ZM23.35 21.3317L13.801 0.88266C13.6836 0.630439 13.4998 0.414965 13.2691 0.259392C13.0385 0.103819 12.7698 0.0140254 12.492 -0.000339754C12.2142 -0.0194496 11.9364 0.0385008 11.6894 0.167128C11.4424 0.295755 11.2357 0.490067 11.092 0.72866L0.737013 17.6477C0.579052 17.9038 0.496903 18.1994 0.500089 18.5003C0.503275 18.8011 0.591665 19.095 0.755014 19.3477L5.81901 27.2567C6.00983 27.5522 6.29126 27.778 6.62116 27.9003C6.95106 28.0225 7.31168 28.0346 7.64901 27.9347L22.349 23.5517C22.571 23.487 22.7764 23.375 22.951 23.2233C23.1255 23.0716 23.2651 22.8839 23.3602 22.6731C23.4552 22.4623 23.5034 22.2334 23.5015 22.0022C23.4996 21.7709 23.4476 21.5429 23.349 21.3337L23.35 21.3317Z" fill="#0C344B"/>
</svg>
